<?xml version="1.0" encoding="UTF-8" standalone="no"?>
<!-- Created with Inkscape (http://www.inkscape.org/) -->
<svg
   xmlns:dc="http://purl.org/dc/elements/1.1/"
   xmlns:cc="http://web.resource.org/cc/"
   xmlns:rdf="http://www.w3.org/1999/02/22-rdf-syntax-ns#"
   xmlns:svg="http://www.w3.org/2000/svg"
   xmlns="http://www.w3.org/2000/svg"
   xmlns:xlink="http://www.w3.org/1999/xlink"
   xmlns:sodipodi="http://sodipodi.sourceforge.net/DTD/sodipodi-0.dtd"
   xmlns:inkscape="http://www.inkscape.org/namespaces/inkscape"
   version="1.0"
   width="320"
   height="280"
   id="svg2"
   sodipodi:version="0.32"
   inkscape:version="0.44.1"
   sodipodi:docname="kmines_classic.svgz.svg"
   sodipodi:docbase="/home/dimka">
  <metadata
     id="metadata2131">
    <rdf:RDF>
      <cc:Work
         rdf:about="">
        <dc:format>image/svg+xml</dc:format>
        <dc:type
           rdf:resource="http://purl.org/dc/dcmitype/StillImage" />
      </cc:Work>
    </rdf:RDF>
  </metadata>
  <sodipodi:namedview
     inkscape:window-height="694"
     inkscape:window-width="923"
     inkscape:pageshadow="2"
     inkscape:pageopacity="0.30980392"
     guidetolerance="10.0"
     gridtolerance="10.0"
     objecttolerance="10.0"
     borderopacity="1.0"
     bordercolor="#666666"
     pagecolor="#545151"
     id="base"
     inkscape:zoom="1.6953125"
     inkscape:cx="137.60205"
     inkscape:cy="143.4827"
     inkscape:window-x="349"
     inkscape:window-y="37"
     inkscape:current-layer="svg2"
     height="280px"
     width="320px" />
  <defs
     id="defs4" />
  <g
     id="smile_ohno"
     transform="translate(-49.52622,-111.0631)">
    <path
       id="path3881"
       style="opacity:1;fill:#ffff00;fill-opacity:1;stroke:#000000;stroke-width:1;stroke-linecap:butt;stroke-linejoin:miter;stroke-miterlimit:4;stroke-dasharray:none;stroke-dashoffset:0;stroke-opacity:1"
       transform="translate(104,25.21063)"
       d="M 92.750727,100.3845 C 92.75253,106.27118 87.98094,111.04423 82.094262,111.04423 C 76.207583,111.04423 71.435993,106.27118 71.437796,100.3845 C 71.435993,94.497822 76.207583,89.72477 82.094262,89.72477 C 87.98094,89.72477 92.75253,94.497822 92.750727,100.3845 L 92.750727,100.3845 z " />
    <path
       id="path3883"
       style="opacity:1;fill:#000000;fill-opacity:1;stroke:#000000;stroke-width:1;stroke-linecap:butt;stroke-linejoin:miter;stroke-miterlimit:4;stroke-dasharray:none;stroke-dashoffset:0;stroke-opacity:1"
       transform="translate(104,26)"
       d="M 79.660765,96.117714 C 79.660765,96.988336 79.143194,97.694114 78.504738,97.694114 C 77.866282,97.694114 77.348711,96.988336 77.348711,96.117714 C 77.348711,95.247092 77.866282,94.541314 78.504738,94.541314 C 79.143194,94.541314 79.660765,95.247092 79.660765,96.117714 z " />
    <path
       id="path3885"
       style="opacity:1;fill:#000000;fill-opacity:1;stroke:#000000;stroke-width:1;stroke-linecap:butt;stroke-linejoin:miter;stroke-miterlimit:4;stroke-dasharray:none;stroke-dashoffset:0;stroke-opacity:1"
       transform="translate(110.9491,26)"
       d="M 79.660765,96.117714 C 79.660765,96.988336 79.143194,97.694114 78.504738,97.694114 C 77.866282,97.694114 77.348711,96.988336 77.348711,96.117714 C 77.348711,95.247092 77.866282,94.541314 78.504738,94.541314 C 79.143194,94.541314 79.660765,95.247092 79.660765,96.117714 z " />
    <path
       id="path3887"
       style="fill:none;fill-opacity:1;stroke:#000000;stroke-width:1;stroke-linecap:butt;stroke-linejoin:miter;stroke-miterlimit:4;stroke-dashoffset:0;stroke-opacity:1"
       d="M 192.17639,131.38796 C 191.09301,129.33389 188.72169,127.90769 185.97282,127.90769 C 183.25867,127.90769 180.9126,129.29809 179.81092,131.31041" />
  </g>
  <g
     id="smile_stress"
     transform="translate(-49.52622,-111.0631)">
    <path
       id="path3889"
       style="opacity:1;fill:#ffff00;fill-opacity:1;stroke:#000000;stroke-width:1;stroke-linecap:butt;stroke-linejoin:miter;stroke-miterlimit:4;stroke-dasharray:none;stroke-dashoffset:0;stroke-opacity:1"
       transform="translate(208,25.21063)"
       d="M 92.750727,100.3845 C 92.75253,106.27118 87.98094,111.04423 82.094262,111.04423 C 76.207583,111.04423 71.435993,106.27118 71.437796,100.3845 C 71.435993,94.497822 76.207583,89.72477 82.094262,89.72477 C 87.98094,89.72477 92.75253,94.497822 92.750727,100.3845 L 92.750727,100.3845 z " />
    <path
       id="path3891"
       style="opacity:1;fill:#000000;fill-opacity:1;stroke:#000000;stroke-width:1;stroke-linecap:butt;stroke-linejoin:miter;stroke-miterlimit:4;stroke-dasharray:none;stroke-dashoffset:0;stroke-opacity:1"
       transform="matrix(1.273269,0,0,1.273269,186.5471,-0.26595)"
       d="M 79.660765,96.117714 C 79.660765,96.988336 79.143194,97.694114 78.504738,97.694114 C 77.866282,97.694114 77.348711,96.988336 77.348711,96.117714 C 77.348711,95.247092 77.866282,94.541314 78.504738,94.541314 C 79.143194,94.541314 79.660765,95.247092 79.660765,96.117714 z " />
    <path
       id="path3895"
       style="opacity:1;fill:#ffff00;fill-opacity:1;stroke:#000000;stroke-width:1;stroke-linecap:butt;stroke-linejoin:miter;stroke-miterlimit:4;stroke-dasharray:none;stroke-dashoffset:0;stroke-opacity:1"
       transform="translate(0.113483,26.34045)"
       d="M 292.67265,104.0983 C 292.67265,105.72785 291.40245,107.04886 289.83558,107.04886 C 288.2687,107.04886 286.9985,105.72785 286.9985,104.0983 C 286.9985,102.46875 288.2687,101.14774 289.83558,101.14774 C 291.40245,101.14774 292.67265,102.46875 292.67265,104.0983 z " />
    <path
       id="path3897"
       style="opacity:1;fill:#000000;fill-opacity:1;stroke:#000000;stroke-width:1;stroke-linecap:butt;stroke-linejoin:miter;stroke-miterlimit:4;stroke-dasharray:none;stroke-dashoffset:0;stroke-opacity:1"
       transform="matrix(1.273269,0,0,1.273269,193.8662,-0.26595)"
       d="M 79.660765,96.117714 C 79.660765,96.988336 79.143194,97.694114 78.504738,97.694114 C 77.866282,97.694114 77.348711,96.988336 77.348711,96.117714 C 77.348711,95.247092 77.866282,94.541314 78.504738,94.541314 C 79.143194,94.541314 79.660765,95.247092 79.660765,96.117714 z " />
  </g>
  <g
     id="smile_sleep"
     transform="translate(-49.52622,-111.0631)">
    <path
       id="path3899"
       style="opacity:1;fill:#ffff00;fill-opacity:1;stroke:#000000;stroke-width:1;stroke-linecap:butt;stroke-linejoin:miter;stroke-miterlimit:4;stroke-dasharray:none;stroke-dashoffset:0;stroke-opacity:1"
       transform="translate(156,25.21063)"
       d="M 92.750727,100.3845 C 92.75253,106.27118 87.98094,111.04423 82.094262,111.04423 C 76.207583,111.04423 71.435993,106.27118 71.437796,100.3845 C 71.435993,94.497822 76.207583,89.72477 82.094262,89.72477 C 87.98094,89.72477 92.75253,94.497822 92.750727,100.3845 L 92.750727,100.3845 z " />
    <path
       id="path3901"
       style="fill:#000000;fill-opacity:1;fill-rule:evenodd;stroke:#000000;stroke-width:1px;stroke-linecap:butt;stroke-linejoin:miter;stroke-opacity:1"
       d="M 234.90979,129.87133 L 241.15136,129.87133" />
    <path
       id="path3903"
       style="fill:#000000;fill-opacity:1;fill-rule:evenodd;stroke:#000000;stroke-width:1px;stroke-linecap:butt;stroke-linejoin:miter;stroke-opacity:1"
       d="M 232.98058,122.94887 L 235.47721,122.94887" />
    <path
       id="path4790"
       style="fill:#000000;fill-opacity:1;fill-rule:evenodd;stroke:#000000;stroke-width:1px;stroke-linecap:butt;stroke-linejoin:miter;stroke-opacity:1"
       d="M 240.8671,122.94887 L 243.36373,122.94887" />
  </g>
  <g
     id="smile"
     transform="translate(-49.52622,-111.0631)">
    <path
       id="path2095"
       style="opacity:1;fill:#ffff00;fill-opacity:1;stroke:#000000;stroke-width:1;stroke-linecap:butt;stroke-linejoin:miter;stroke-miterlimit:4;stroke-dasharray:none;stroke-dashoffset:0;stroke-opacity:1"
       transform="translate(0,25.21063)"
       d="M 92.750727,100.3845 C 92.75253,106.27118 87.98094,111.04423 82.094262,111.04423 C 76.207583,111.04423 71.435993,106.27118 71.437796,100.3845 C 71.435993,94.497822 76.207583,89.72477 82.094262,89.72477 C 87.98094,89.72477 92.75253,94.497822 92.750727,100.3845 L 92.750727,100.3845 z " />
    <path
       id="path2097"
       style="opacity:1;fill:#000000;fill-opacity:1;stroke:#000000;stroke-width:1;stroke-linecap:butt;stroke-linejoin:miter;stroke-miterlimit:4;stroke-dasharray:none;stroke-dashoffset:0;stroke-opacity:1"
       transform="translate(0,26)"
       d="M 79.660765,96.117714 C 79.660765,96.988336 79.143194,97.694114 78.504738,97.694114 C 77.866282,97.694114 77.348711,96.988336 77.348711,96.117714 C 77.348711,95.247092 77.866282,94.541314 78.504738,94.541314 C 79.143194,94.541314 79.660765,95.247092 79.660765,96.117714 z " />
    <path
       id="path2984"
       style="opacity:1;fill:#000000;fill-opacity:1;stroke:#000000;stroke-width:1;stroke-linecap:butt;stroke-linejoin:miter;stroke-miterlimit:4;stroke-dasharray:none;stroke-dashoffset:0;stroke-opacity:1"
       transform="translate(6.949066,26)"
       d="M 79.660765,96.117714 C 79.660765,96.988336 79.143194,97.694114 78.504738,97.694114 C 77.866282,97.694114 77.348711,96.988336 77.348711,96.117714 C 77.348711,95.247092 77.866282,94.541314 78.504738,94.541314 C 79.143194,94.541314 79.660765,95.247092 79.660765,96.117714 z " />
    <path
       id="path3873"
       style="fill:none;fill-opacity:1;stroke:#000000;stroke-width:1;stroke-linecap:butt;stroke-linejoin:miter;stroke-miterlimit:4;stroke-dashoffset:0;stroke-opacity:1"
       d="M 88.176387,128.7264 C 87.093005,130.78047 84.721686,132.20667 81.972816,132.20667 C 79.258675,132.20667 76.912604,130.81627 75.810922,128.80395" />
    <path
       id="path5683"
       style="fill:none;fill-opacity:0.75;fill-rule:evenodd;stroke:#000000;stroke-width:0.5;stroke-linecap:butt;stroke-linejoin:miter;stroke-miterlimit:4;stroke-dasharray:none;stroke-opacity:1"
       d="M 87.488896,127.55968 C 87.488896,127.55968 87.582233,128.39972 88.173374,128.74196 C 88.787966,129.09778 89.666784,129.11532 89.666784,129.11532" />
    <path
       id="path5685"
       style="fill:none;fill-opacity:0.75;fill-rule:evenodd;stroke:#000000;stroke-width:0.5;stroke-linecap:butt;stroke-linejoin:miter;stroke-miterlimit:4;stroke-dasharray:none;stroke-opacity:1"
       d="M 76.501354,127.55968 C 76.501354,127.55968 76.408017,128.39972 75.816876,128.74196 C 75.202284,129.09778 74.323466,129.11532 74.323466,129.11532" />
  </g>
  <g
     id="smile_happy"
     transform="translate(-49.52622,-111.0631)">
    <path
       id="path5687"
       style="opacity:1;fill:#ffff00;fill-opacity:1;stroke:#000000;stroke-width:1;stroke-linecap:butt;stroke-linejoin:miter;stroke-miterlimit:4;stroke-dasharray:none;stroke-dashoffset:0;stroke-opacity:1"
       transform="translate(52,25.21063)"
       d="M 92.750727,100.3845 C 92.75253,106.27118 87.98094,111.04423 82.094262,111.04423 C 76.207583,111.04423 71.435993,106.27118 71.437796,100.3845 C 71.435993,94.497822 76.207583,89.72477 82.094262,89.72477 C 87.98094,89.72477 92.75253,94.497822 92.750727,100.3845 L 92.750727,100.3845 z " />
    <path
       id="path5689"
       style="fill:#000000;fill-opacity:1;stroke:#000000;stroke-width:1;stroke-linecap:butt;stroke-linejoin:miter;stroke-miterlimit:4;stroke-dashoffset:0;stroke-opacity:1"
       d="M 133.08183,122.25305 C 133.01416,123.3939 131.61655,124.23547 130.50474,124.23547 C 129.46059,124.23547 127.59617,123.14994 127.85998,121.7117 C 128.1016,120.39445 129.67189,119.7621 130.64008,119.93229 C 131.88456,120.15105 133.01416,121.04453 133.08183,122.25305 z " />
    <path
       id="path5693"
       style="fill:none;fill-opacity:1;stroke:#000000;stroke-width:1;stroke-linecap:butt;stroke-linejoin:miter;stroke-miterlimit:4;stroke-dashoffset:0;stroke-opacity:1"
       d="M 140.17639,128.7264 C 139.09301,130.78047 136.72169,132.20667 133.97282,132.20667 C 131.25867,132.20667 128.9126,130.81627 127.81092,128.80395" />
    <path
       id="path5695"
       style="fill:none;fill-opacity:0.75;fill-rule:evenodd;stroke:#000000;stroke-width:0.5;stroke-linecap:butt;stroke-linejoin:miter;stroke-miterlimit:4;stroke-dasharray:none;stroke-opacity:1"
       d="M 139.4889,127.55968 C 139.4889,127.55968 139.58223,128.39972 140.17337,128.74196 C 140.78797,129.09778 141.66678,129.11532 141.66678,129.11532" />
    <path
       id="path5697"
       style="fill:none;fill-opacity:0.75;fill-rule:evenodd;stroke:#000000;stroke-width:0.5;stroke-linecap:butt;stroke-linejoin:miter;stroke-miterlimit:4;stroke-dasharray:none;stroke-opacity:1"
       d="M 128.50135,127.55968 C 128.50135,127.55968 128.40802,128.39972 127.81688,128.74196 C 127.20228,129.09778 126.32347,129.11532 126.32347,129.11532" />
    <path
       id="path5700"
       style="fill:#000000;fill-opacity:1;stroke:#000000;stroke-width:1;stroke-linecap:butt;stroke-linejoin:miter;stroke-miterlimit:4;stroke-dashoffset:0;stroke-opacity:1"
       d="M 135.00767,122.25305 C 135.07534,123.3939 136.47294,124.23547 137.58476,124.23547 C 138.6289,124.23547 140.49333,123.14994 140.22952,121.7117 C 139.9879,120.39445 138.4176,119.7621 137.44942,119.93229 C 136.20493,120.15105 135.07534,121.04453 135.00767,122.25305 z " />
    <path
       id="path5702"
       style="fill:none;fill-opacity:0.75;fill-rule:evenodd;stroke:#000000;stroke-width:1px;stroke-linecap:butt;stroke-linejoin:miter;stroke-opacity:1"
       d="M 125.2564,120.14598 C 125.2564,120.14598 125.20125,120.02682 126.27145,121.02568 C 127.28649,121.97305 127.69251,121.83771 127.69251,121.83771" />
    <path
       id="path5704"
       style="fill:none;fill-opacity:0.75;fill-rule:evenodd;stroke:#000000;stroke-width:1px;stroke-linecap:butt;stroke-linejoin:miter;stroke-opacity:1"
       d="M 142.87999,120.14598 C 142.87999,120.14598 142.93514,120.02682 141.86494,121.02568 C 140.8499,121.97305 140.44388,121.83771 140.44388,121.83771" />
    <path
       id="path5706"
       style="fill:none;fill-opacity:0.75;fill-rule:evenodd;stroke:#000000;stroke-width:1px;stroke-linecap:butt;stroke-linejoin:miter;stroke-opacity:1"
       d="M 133.17374,122.04072 L 134.79781,122.04072" />
  </g>
  <g
     id="cell_up"
     transform="matrix(0.9737267,0,0,0.9737267,-43.291883,-101.33426)">
    <g
       id="g6946"
       transform="translate(0,45.31465)">
      <path
         id="rect6941"
         style="fill:#ffffff;fill-opacity:1;stroke:none;stroke-width:1;stroke-linecap:butt;stroke-linejoin:miter;stroke-miterlimit:4;stroke-dashoffset:0;stroke-opacity:1"
         d="M 216.31122,142.86279 L 257.39051,142.86279 L 216.31122,183.94208 L 216.31122,142.86279 z " />
      <path
         id="path6944"
         style="fill:#555556;fill-opacity:1;stroke:none;stroke-width:1;stroke-linecap:butt;stroke-linejoin:miter;stroke-miterlimit:4;stroke-dashoffset:0;stroke-opacity:1"
         d="M 257.39051,183.94208 L 216.31122,183.94208 L 257.39051,142.86279 L 257.39051,183.94208 z " />
    </g>
    <rect
       id="rect6950"
       style="opacity:1;fill:#eeeff2;fill-opacity:1;stroke:none;stroke-width:1;stroke-linecap:butt;stroke-linejoin:miter;stroke-miterlimit:4;stroke-dasharray:none;stroke-dashoffset:0;stroke-opacity:1"
       y="190.26117"
       x="218.39496"
       height="36.911823"
       width="36.911823" />
  </g>
  <g
     id="cell_down"
     transform="matrix(0.9737267,0,0,0.9737267,-151.03594,-101.33426)">
    <g
       id="g6952"
       transform="matrix(-1,0,0,-1,419.7017,372.1195)">
      <path
         id="path6954"
         style="fill:#ffffff;fill-opacity:1;stroke:none;stroke-width:1;stroke-linecap:butt;stroke-linejoin:miter;stroke-miterlimit:4;stroke-dashoffset:0;stroke-opacity:1"
         d="M 216.31122,142.86279 L 257.39051,142.86279 L 216.31122,183.94208 L 216.31122,142.86279 z " />
      <path
         id="path6956"
         style="fill:#555556;fill-opacity:1;stroke:none;stroke-width:1;stroke-linecap:butt;stroke-linejoin:miter;stroke-miterlimit:4;stroke-dashoffset:0;stroke-opacity:1"
         d="M 257.39051,183.94208 L 216.31122,183.94208 L 257.39051,142.86279 L 257.39051,183.94208 z " />
    </g>
    <rect
       id="rect6958"
       style="opacity:1;fill:#d3d7cf;fill-opacity:1;stroke:none;stroke-width:1;stroke-linecap:butt;stroke-linejoin:miter;stroke-miterlimit:4;stroke-dasharray:none;stroke-dashoffset:0;stroke-opacity:1"
       y="190.26117"
       x="164.39496"
       height="36.911823"
       width="36.911823" />
  </g>
  <g
     id="mine"
     transform="matrix(0.9741248,0,0,0.9741248,-46.997193,-148.1853)">
    <g
       id="g7905"
       transform="translate(-0.649465,52.40309)">
      <path
         id="path6903"
         style="fill:none;fill-opacity:0.75;fill-rule:evenodd;stroke:#000000;stroke-width:2.5;stroke-linecap:butt;stroke-linejoin:miter;stroke-miterlimit:4;stroke-dasharray:none;stroke-opacity:1"
         d="M 131.49321,188.58009 L 131.49321,220.05122" />
      <path
         id="path6907"
         style="fill:none;fill-opacity:0.75;fill-rule:evenodd;stroke:#000000;stroke-width:2.5;stroke-linecap:butt;stroke-linejoin:miter;stroke-miterlimit:4;stroke-dasharray:none;stroke-opacity:1"
         d="M 142.78854,193.02033 L 120.19788,215.61099" />
      <path
         id="path6909"
         style="fill:none;fill-opacity:0.75;fill-rule:evenodd;stroke:#000000;stroke-width:2.5;stroke-linecap:butt;stroke-linejoin:miter;stroke-miterlimit:4;stroke-dasharray:none;stroke-opacity:1"
         d="M 147.22878,204.31566 L 115.75765,204.31566" />
      <path
         id="path6911"
         style="fill:none;fill-opacity:0.75;fill-rule:evenodd;stroke:#000000;stroke-width:2.5;stroke-linecap:butt;stroke-linejoin:miter;stroke-miterlimit:4;stroke-dasharray:none;stroke-opacity:1"
         d="M 120.19788,193.02033 L 142.78854,215.61099" />
      <path
         id="path6016"
         style="opacity:1;fill:#000000;fill-opacity:1;stroke:#000000;stroke-width:0.5;stroke-linecap:butt;stroke-linejoin:miter;stroke-miterlimit:4;stroke-dasharray:none;stroke-dashoffset:0;stroke-opacity:1"
         transform="matrix(1.026882,0,0,1.026882,-3.597789,36.10967)"
         d="M 142.89536,163.80252 C 142.89799,170.06779 137.81973,175.14818 131.55446,175.14818 C 125.28919,175.14818 120.21093,170.06779 120.21356,163.80252 C 120.21093,157.53725 125.28919,152.45686 131.55446,152.45686 C 137.81973,152.45686 142.89799,157.53725 142.89536,163.80252 z " />
      <rect
         id="rect6923"
         style="opacity:1;fill:#ffffff;fill-opacity:1;stroke:none;stroke-width:2.5;stroke-linecap:butt;stroke-linejoin:miter;stroke-miterlimit:4;stroke-dasharray:none;stroke-dashoffset:0;stroke-opacity:1"
         y="199.71634"
         x="126.66348"
         height="3.8603189"
         width="4.0507383" />
    </g>
    <path
       id="cellsize"
       style="fill:none;fill-opacity:1;stroke:none;stroke-width:1;stroke-linecap:butt;stroke-linejoin:miter;stroke-miterlimit:4;stroke-dashoffset:0;stroke-opacity:1"
       d="M 110.3125,236.1875 L 110.3125,277.25 L 151.375,277.25 L 151.375,236.1875 L 110.3125,236.1875 z " />
  </g>
  <g
     id="flag"
     transform="matrix(0.9741248,0,0,0.9741248,-42.531823,-101.42741)">
    <g
       id="g6972"
       transform="translate(0.364919,6.670126)">
      <rect
         id="rect6925"
         style="opacity:1;fill:#ff0000;fill-opacity:1;stroke:#000000;stroke-width:0.98132008;stroke-linecap:butt;stroke-linejoin:miter;stroke-miterlimit:4;stroke-dasharray:none;stroke-dashoffset:0;stroke-opacity:1"
         y="190.44032"
         x="279.95901"
         height="12.794086"
         width="15.131051" />
      <path
         id="path6927"
         style="fill:none;fill-opacity:0.75;fill-rule:evenodd;stroke:#000000;stroke-width:1px;stroke-linecap:butt;stroke-linejoin:miter;stroke-opacity:1"
         d="M 296.01551,187.95691 L 296.01551,209.61278" />
      <path
         id="path6929"
         style="fill:none;fill-opacity:0.75;fill-rule:evenodd;stroke:#000000;stroke-width:1px;stroke-linecap:butt;stroke-linejoin:miter;stroke-opacity:1"
         d="M 292.74376,211.48235 L 298.04088,211.48235" />
      <path
         id="path6931"
         style="fill:none;fill-opacity:0.75;fill-rule:evenodd;stroke:#000000;stroke-width:1px;stroke-linecap:butt;stroke-linejoin:miter;stroke-opacity:1"
         d="M 290.71839,213.81931 L 301.31263,213.81931" />
      <path
         id="path6933"
         style="fill:none;fill-opacity:0.75;fill-rule:evenodd;stroke:#000000;stroke-width:0.96811497px;stroke-linecap:butt;stroke-linejoin:miter;stroke-opacity:1"
         d="M 285.0004,216.15628 L 305.00525,216.15628" />
    </g>
    <use
       xlink:href="#cellsize"
       height="1052.3622"
       width="744.09448"
       y="0"
       x="0"
       id="use7890"
       transform="translate(160,-48)" />
  </g>
  <g
     id="explosion"
     transform="matrix(0.9741248,0,0,0.9741248,-46.158153,-99.479163)">
    <rect
       id="rect6981"
       style="opacity:1;fill:#ff0000;fill-opacity:1;stroke:none;stroke-width:1;stroke-linecap:butt;stroke-linejoin:miter;stroke-miterlimit:4;stroke-dasharray:none;stroke-dashoffset:0;stroke-opacity:1"
       y="190.34657"
       x="168.47157"
       height="32.744358"
       width="32.744358" />
    <use
       xlink:href="#cellsize"
       height="1052.3622"
       width="744.09448"
       y="0"
       x="0"
       id="use7888"
       transform="translate(54,-50)" />
  </g>
  <g
     id="hint"
     transform="matrix(0.9741248,0,0,0.9741248,-41.157433,-105.03538)">
    <use
       xlink:href="#cellsize"
       height="1052.3622"
       width="744.09448"
       y="0"
       x="0"
       id="use9947"
       transform="translate(213.1165,-44.29616)" />
    <rect
       id="rect9056"
       style="opacity:1;fill:none;fill-opacity:1;stroke:#ff0000;stroke-width:1.50936568;stroke-linecap:butt;stroke-linejoin:round;stroke-miterlimit:4;stroke-dasharray:none;stroke-dashoffset:0;stroke-opacity:1"
       y="201.17418"
       x="332.62262"
       height="22.625792"
       width="22.625792" />
  </g>
  <g
     id="error"
     transform="matrix(0.9741248,0,0,0.9741248,-13.064784,-21.166648)">
    <use
       xlink:href="#cellsize"
       height="1052.3622"
       width="744.09448"
       y="0"
       x="0"
       id="use2037"
       transform="translate(181.5078,-182.1882)" />
    <path
       id="path2042"
       style="fill:none;fill-opacity:0.75;fill-rule:evenodd;stroke:#ff0000;stroke-width:3.69349432;stroke-linecap:butt;stroke-linejoin:miter;stroke-miterlimit:4;stroke-dasharray:none;stroke-opacity:1"
       d="M 295.05114,57.668904 L 329.38428,91.33767" />
    <path
       id="path2929"
       style="fill:none;fill-opacity:1;fill-rule:evenodd;stroke:#ff0000;stroke-width:3.69300008;stroke-linecap:butt;stroke-linejoin:miter;stroke-miterlimit:4;stroke-dasharray:none;stroke-opacity:1"
       d="M 329.38428,57.668904 L 295.05114,91.33767" />
  </g>
  <g
     id="arabicOne"
     inkscape:label="#g3375">
    <path
       id="text3357"
       d="M 13.726319,55.118378 L 16.626709,55.118378 L 16.626709,46.601777 L 13.928467,47.269746 L 13.928467,44.931855 L 16.644287,44.281464 L 19.14917,44.281464 L 19.14917,55.118378 L 22.049561,55.118378 L 22.049561,57.403535 L 13.726319,57.403535 L 13.726319,55.118378"
       style="font-size:12px;font-style:normal;font-weight:normal;line-height:125%;fill:#0000ff;fill-opacity:1;stroke:none;stroke-width:1px;stroke-linecap:butt;stroke-linejoin:miter;stroke-opacity:1;font-family:Bitstream Vera Sans" />
    <rect
       inkscape:tile-cy="51.299478"
       inkscape:tile-cx="17.887941"
       inkscape:tile-h="20.000001"
       inkscape:tile-w="20.000001"
       y="41.28093"
       x="8.3263702"
       height="19.12314"
       width="19.12314"
       id="rect3341"
       style="fill:none;fill-rule:evenodd;stroke:none;stroke-width:0.87686026px;stroke-linecap:butt;stroke-linejoin:miter;stroke-opacity:1" />
  </g>
  <g
     id="arabicTwo"
     inkscape:label="#g3379">
    <use
       style="fill:none;stroke:none"
       height="130"
       width="320"
       transform="translate(20,-1.3855469e-6)"
       id="use3343"
       xlink:href="#rect3341"
       inkscape:tiled-clone-of="#rect3341"
       y="0"
       x="0" />
    <path
       id="text3365"
       d="M 36.525636,55.23703 L 42.053956,55.23703 L 42.053956,57.522186 L 33.721925,57.522186 L 33.721925,55.307342 L 35.128175,53.813202 C 36.798093,52.037817 37.811764,50.945044 38.169191,50.534882 C 38.608638,50.030983 38.925044,49.585671 39.118409,49.198944 C 39.311762,48.806375 39.408442,48.419656 39.408448,48.038788 C 39.408442,47.45286 39.229731,47.001689 38.872316,46.685272 C 38.520747,46.363018 38.019771,46.201885 37.369386,46.201874 C 36.906491,46.201885 36.385007,46.295635 35.804933,46.483124 C 35.230712,46.664775 34.630126,46.931377 34.003175,47.282928 L 34.003175,44.865936 C 34.630126,44.637433 35.24243,44.464582 35.840089,44.347382 C 36.443601,44.224348 37.020749,44.162825 37.571534,44.162811 C 38.9602,44.162825 40.050043,44.48802 40.841066,45.138397 C 41.637932,45.78294 42.036369,46.664775 42.036378,47.783905 C 42.036369,48.299539 41.948478,48.782937 41.772706,49.2341 C 41.602775,49.68528 41.306877,50.186256 40.885011,50.73703 C 40.574456,51.135474 39.721918,52.031957 38.327394,53.426483 C 37.57153,54.182346 36.970944,54.785861 36.525636,55.23703"
       style="font-size:18px;font-style:normal;font-variant:normal;font-weight:bold;font-stretch:normal;text-align:start;line-height:125%;writing-mode:lr-tb;text-anchor:start;fill:#008000;fill-opacity:1;stroke:none;stroke-width:1px;stroke-linecap:butt;stroke-linejoin:miter;stroke-opacity:1;font-family:Bitstream Vera Sans Mono" />
  </g>
  <g
     id="arabicThree"
     inkscape:label="#g2317">
    <use
       height="130"
       width="320"
       id="use3345"
       transform="translate(40.000001,-4.9999994e-8)"
       xlink:href="#rect3341"
       inkscape:tiled-clone-of="#rect3341"
       y="0"
       x="0" />
    <path
       id="text3369"
       d="M 57.329836,51.52365 L 55.941164,51.52365 L 55.941164,49.238494 L 57.329836,49.238494 C 57.974361,49.238502 58.472408,49.112525 58.823976,48.860564 C 59.181392,48.60276 59.360102,48.242409 59.360109,47.779509 C 59.360102,47.293191 59.181392,46.915262 58.823976,46.64572 C 58.472408,46.370341 57.974361,46.232646 57.329836,46.232634 C 56.837644,46.232646 56.310301,46.294169 55.747804,46.417205 C 55.185302,46.540262 54.602295,46.718973 53.998781,46.953338 L 53.998781,44.597869 C 54.602295,44.416241 55.197021,44.278546 55.782961,44.184783 C 56.368894,44.085187 56.931394,44.035382 57.470461,44.035369 C 58.853267,44.035382 59.931391,44.33714 60.704836,44.940642 C 61.478264,45.54417 61.864983,46.3762 61.864992,47.436736 C 61.864983,48.216042 61.642327,48.854713 61.197023,49.352752 C 60.751702,49.844947 60.115961,50.167212 59.289797,50.319548 C 60.227289,50.483618 60.942132,50.858618 61.434328,51.444548 C 61.926506,52.024632 62.172599,52.78928 62.172609,53.738494 C 62.172599,55.009981 61.765373,55.979706 60.950929,56.647673 C 60.136469,57.315642 58.952876,57.649626 57.400148,57.649627 C 56.738035,57.649626 56.084715,57.593962 55.440187,57.482634 C 54.801513,57.371306 54.189209,57.210174 53.603273,56.999236 L 53.603273,54.591033 C 54.154053,54.866426 54.748779,55.077363 55.387453,55.223845 C 56.026121,55.364472 56.697019,55.434785 57.400148,55.434783 C 58.103268,55.434785 58.659908,55.273652 59.07007,54.951384 C 59.480219,54.623262 59.685297,54.183809 59.685304,53.633025 C 59.685297,52.959201 59.480219,52.440647 59.07007,52.077361 C 58.659908,51.708226 58.07983,51.523656 57.329836,51.52365"
       style="font-size:18px;font-style:normal;font-variant:normal;font-weight:bold;font-stretch:normal;text-align:start;line-height:125%;writing-mode:lr-tb;text-anchor:start;fill:#808000;fill-opacity:1;stroke:none;stroke-width:1px;stroke-linecap:butt;stroke-linejoin:miter;stroke-opacity:1;font-family:Bitstream Vera Sans Mono" />
  </g>
  <g
     id="arabicFour"
     inkscape:label="#g2313">
    <use
       height="130"
       width="320"
       id="use3347"
       transform="translate(60.000001,-4.9999994e-8)"
       xlink:href="#rect3341"
       inkscape:tiled-clone-of="#rect3341"
       y="0"
       x="0" />
    <path
       id="text3373"
       d="M 78.525148,47.164275 L 75.211672,52.349822 L 78.525148,52.349822 L 78.525148,47.164275 M 78.296633,44.281463 L 81.012453,44.281463 L 81.012453,52.349822 L 82.453859,52.349822 L 82.453859,54.573455 L 81.012453,54.573455 L 81.012453,57.403533 L 78.525148,57.403533 L 78.525148,54.573455 L 73.322023,54.573455 L 73.322023,52.059783 L 78.296633,44.281463"
       style="font-size:18px;font-style:normal;font-variant:normal;font-weight:bold;font-stretch:normal;text-align:start;line-height:125%;writing-mode:lr-tb;text-anchor:start;fill:#800080;fill-opacity:1;stroke:none;stroke-width:1px;stroke-linecap:butt;stroke-linejoin:miter;stroke-opacity:1;font-family:Bitstream Vera Sans Mono" />
  </g>
  <g
     id="arabicFive"
     inkscape:label="#g2309">
    <use
       height="130"
       width="320"
       id="use3349"
       transform="translate(80,-4.9999994e-8)"
       xlink:href="#rect3341"
       inkscape:tiled-clone-of="#rect3341"
       y="0"
       x="0" />
    <path
       id="text3377"
       d="M 94.148193,44.154022 L 101.27612,44.154022 L 101.27612,46.439178 L 96.248783,46.439178 L 96.248783,48.873748 C 96.459713,48.791725 96.685303,48.733132 96.925543,48.697967 C 97.165773,48.65696 97.420653,48.636452 97.690183,48.636444 C 98.990963,48.636452 100.04565,49.046608 100.85425,49.866912 C 101.66283,50.687231 102.06713,51.753637 102.06714,53.066131 C 102.06713,54.443087 101.62768,55.53293 100.74878,56.335662 C 99.875723,57.132537 98.683343,57.530975 97.171633,57.530975 C 96.609133,57.530975 96.040773,57.4841 95.466553,57.39035 C 94.892333,57.2966 94.306393,57.155975 93.708743,56.968475 L 93.708743,54.630584 C 94.195073,54.870821 94.693113,55.052461 95.202883,55.175506 C 95.718503,55.292696 96.234133,55.351289 96.749763,55.351287 C 97.663813,55.351289 98.358153,55.15793 98.832763,54.771209 C 99.307373,54.378634 99.544673,53.810275 99.544683,53.066131 C 99.544673,52.380589 99.307373,51.832738 98.832763,51.422576 C 98.364013,51.006567 97.737053,50.798559 96.951903,50.798553 C 96.489013,50.798559 96.023193,50.857153 95.554443,50.974334 C 95.091553,51.085668 94.622803,51.25559 94.148193,51.4841 L 94.148193,44.154022"
       style="font-size:18px;font-style:normal;font-variant:normal;font-weight:bold;font-stretch:normal;text-align:start;line-height:125%;writing-mode:lr-tb;text-anchor:start;fill:#ff0000;fill-opacity:1;stroke:none;stroke-width:1px;stroke-linecap:butt;stroke-linejoin:miter;stroke-opacity:1;font-family:Bitstream Vera Sans Mono" />
  </g>
  <g
     id="arabicSix"
     inkscape:label="#g2305">
    <use
       height="130"
       width="320"
       id="use3351"
       transform="translate(100,-4.9999994e-8)"
       xlink:href="#rect3341"
       inkscape:tiled-clone-of="#rect3341"
       y="0"
       x="0" />
    <path
       id="text3381"
       d="M 118.03296,50.802947 C 117.47046,50.802954 117.0398,51.008032 116.74097,51.418182 C 116.448,51.822484 116.30152,52.411351 116.30152,53.184783 C 116.30152,53.952365 116.448,54.541231 116.74097,54.951385 C 117.0398,55.355684 117.47046,55.557832 118.03296,55.55783 C 118.59546,55.557832 119.02612,55.355684 119.32496,54.951385 C 119.62964,54.541231 119.78198,53.952365 119.78199,53.184783 C 119.78198,52.41721 119.62964,51.828343 119.32496,51.418182 C 119.02612,51.008032 118.59546,50.802954 118.03296,50.802947 M 121.43433,44.562713 L 121.43433,46.918182 C 120.97143,46.65452 120.52612,46.458232 120.09839,46.329314 C 119.67651,46.19456 119.26929,46.127177 118.87671,46.127166 C 117.93921,46.127177 117.22437,46.443583 116.73218,47.076385 C 116.24585,47.703347 115.99097,48.632057 115.96754,49.862517 C 116.24292,49.481666 116.59448,49.197487 117.02222,49.009978 C 117.44995,48.816628 117.95386,48.719948 118.53394,48.719939 C 119.71753,48.719948 120.63159,49.094948 121.27613,49.844939 C 121.92065,50.589087 122.24292,51.646703 122.24293,53.017791 C 122.24292,54.488497 121.87963,55.628144 121.15308,56.436736 C 120.43237,57.24533 119.41577,57.649627 118.10328,57.649627 C 116.50366,57.649627 115.34058,57.113494 114.61402,56.041228 C 113.89331,54.968965 113.53296,53.237522 113.53296,50.846892 C 113.53296,48.573464 113.97535,46.871317 114.86011,45.740447 C 115.74488,44.603741 117.07202,44.035382 118.84156,44.035369 C 119.25171,44.035382 119.67358,44.079328 120.10718,44.167205 C 120.54663,44.255109 120.98901,44.386945 121.43433,44.562713"
       style="font-size:18px;font-style:normal;font-variant:normal;font-weight:bold;font-stretch:normal;text-align:start;line-height:125%;writing-mode:lr-tb;text-anchor:start;fill:#800000;fill-opacity:1;stroke:none;stroke-width:1px;stroke-linecap:butt;stroke-linejoin:miter;stroke-opacity:1;font-family:Bitstream Vera Sans Mono" />
  </g>
  <g
     id="arabicSeven"
     inkscape:label="#g2301">
    <use
       height="130"
       width="320"
       id="use3353"
       transform="translate(120,-4.9999994e-8)"
       xlink:href="#rect3341"
       inkscape:tiled-clone-of="#rect3341"
       y="0"
       x="0" />
    <path
       id="text3385"
       d="M 133.73951,44.281463 L 142.03638,44.281463 L 142.03638,46.118377 L 137.58912,57.403533 L 134.94361,57.403533 L 139.21509,46.566619 L 133.73951,46.566619 L 133.73951,44.281463"
       style="font-size:18px;font-style:normal;font-variant:normal;font-weight:bold;font-stretch:normal;text-align:start;line-height:125%;writing-mode:lr-tb;text-anchor:start;fill:#008080;fill-opacity:1;stroke:none;stroke-width:1px;stroke-linecap:butt;stroke-linejoin:miter;stroke-opacity:1;font-family:Bitstream Vera Sans Mono" />
  </g>
  <g
     id="arabicEight"
     inkscape:label="#g2297">
    <use
       height="130"
       width="320"
       id="use3355"
       transform="translate(140,-4.9999994e-8)"
       xlink:href="#rect3341"
       inkscape:tiled-clone-of="#rect3341"
       y="0"
       x="0" />
    <path
       id="text3389"
       d="M 157.88355,51.541229 C 157.30346,51.541235 156.83471,51.725805 156.4773,52.09494 C 156.11987,52.458226 155.94116,52.941624 155.94116,53.545135 C 155.94116,54.148654 156.11987,54.634982 156.4773,55.004119 C 156.83471,55.373262 157.30346,55.557832 157.88355,55.55783 C 158.46362,55.557832 158.93237,55.370332 159.2898,54.99533 C 159.65307,54.620333 159.83471,54.136935 159.83472,53.545135 C 159.83471,52.941624 159.656,52.458226 159.29858,52.09494 C 158.94116,51.725805 158.46948,51.541235 157.88355,51.541229 M 155.95874,50.442596 C 155.29663,50.214088 154.79272,49.856666 154.44702,49.37033 C 154.10132,48.878151 153.92847,48.277566 153.92847,47.568573 C 153.92847,46.47874 154.28296,45.617413 154.99194,44.984588 C 155.70093,44.351789 156.66479,44.035383 157.88355,44.035369 C 159.10815,44.035383 160.07494,44.351789 160.78394,44.984588 C 161.49291,45.617413 161.8474,46.47874 161.84741,47.568573 C 161.8474,48.271707 161.67748,48.869362 161.33765,49.361541 C 160.9978,49.847877 160.50268,50.208228 159.8523,50.442596 C 160.57885,50.665259 161.14721,51.063696 161.55737,51.637909 C 161.96752,52.212132 162.1726,52.900608 162.17261,53.703338 C 162.1726,54.963106 161.80053,55.935762 161.0564,56.621307 C 160.31225,57.306854 159.25463,57.649627 157.88355,57.649627 C 156.51831,57.649627 155.46362,57.306854 154.71948,56.621307 C 153.97534,55.935762 153.60327,54.963106 153.60327,53.703338 C 153.60327,52.894749 153.81128,52.203343 154.2273,51.629119 C 154.64331,51.054907 155.22046,50.6594 155.95874,50.442596 M 156.2312,47.77951 C 156.2312,48.295144 156.37768,48.7053 156.67066,49.009979 C 156.96948,49.308815 157.37378,49.458229 157.88355,49.458221 C 158.39916,49.458229 158.80346,49.308815 159.09644,49.009979 C 159.39526,48.7053 159.54467,48.295144 159.54468,47.77951 C 159.54467,47.269755 159.39526,46.868388 159.09644,46.575409 C 158.80346,46.276592 158.39916,46.127178 157.88355,46.127166 C 157.37963,46.127178 156.97827,46.276592 156.67944,46.575409 C 156.38061,46.874247 156.2312,47.275614 156.2312,47.77951"
       style="font-size:18px;font-style:normal;font-variant:normal;font-weight:bold;font-stretch:normal;text-align:start;line-height:125%;writing-mode:lr-tb;text-anchor:start;fill:#2b0000;fill-opacity:1;stroke:none;stroke-width:1px;stroke-linecap:butt;stroke-linejoin:miter;stroke-opacity:1;font-family:Bitstream Vera Sans Mono" />
  </g>
  <g
     id="question"
     inkscape:label="#g2269">
    <use
       height="130"
       width="320"
       id="use2259"
       transform="translate(182.48327,-1.3783624)"
       xlink:href="#rect3341"
       inkscape:tiled-clone-of="#rect3341"
       y="0"
       x="0" />
    <text
       sodipodi:linespacing="125%"
       id="text2265"
       y="56.143826"
       x="194.66711"
       style="font-size:18px;font-style:normal;font-variant:normal;font-weight:bold;font-stretch:normal;text-align:start;line-height:125%;writing-mode:lr-tb;text-anchor:start;fill:#000000;fill-opacity:1;stroke:none;stroke-width:1px;stroke-linecap:butt;stroke-linejoin:miter;stroke-opacity:1;font-family:Bitstream Vera Sans Mono"
       xml:space="preserve"><tspan
         y="56.143826"
         x="194.66711"
         id="tspan2267"
         sodipodi:role="line">?</tspan></text>
  </g>
  <g
     id="border.outsideCorner.sw"
     transform="translate(69.898618,6.488483)">
    <rect
       style="fill:none;stroke:none"
       id="use2313"
       width="40"
       height="40"
       x="-60"
       y="220.13824" />
    <g
       id="g2267"
       transform="matrix(9.7372666e-2,0,0,9.7372666e-2,-45.0628,206.22731)">
      <path
         id="path2269"
         style="fill:#ffffff;fill-opacity:1;stroke:none;stroke-width:1;stroke-linecap:butt;stroke-linejoin:miter;stroke-miterlimit:4;stroke-dashoffset:0;stroke-opacity:1"
         d="M 216.31122,142.86279 L 257.39051,142.86279 L 216.31122,183.94208 L 216.31122,142.86279 z " />
      <path
         id="path2271"
         style="fill:#555556;fill-opacity:1;stroke:none;stroke-width:1;stroke-linecap:butt;stroke-linejoin:miter;stroke-miterlimit:4;stroke-dashoffset:0;stroke-opacity:1"
         d="M 257.39051,183.94208 L 216.31122,183.94208 L 257.39051,142.86279 L 257.39051,183.94208 z " />
    </g>
  </g>
  <g
     id="border.outsideCorner.ne"
     transform="translate(80.51613,-5.6036866)">
    <rect
       style="fill:none;stroke:none"
       id="use2321"
       width="40"
       height="40"
       x="20"
       y="140.13824" />
    <g
       id="g2453"
       transform="matrix(9.7372666e-2,0,0,9.7372666e-2,-1.0628002,162.22731)">
      <path
         id="path2455"
         style="fill:#ffffff;fill-opacity:1;stroke:none;stroke-width:1;stroke-linecap:butt;stroke-linejoin:miter;stroke-miterlimit:4;stroke-dashoffset:0;stroke-opacity:1"
         d="M 216.31122,142.86279 L 257.39051,142.86279 L 216.31122,183.94208 L 216.31122,142.86279 z " />
      <path
         id="path2457"
         style="fill:#555556;fill-opacity:1;stroke:none;stroke-width:1;stroke-linecap:butt;stroke-linejoin:miter;stroke-miterlimit:4;stroke-dashoffset:0;stroke-opacity:1"
         d="M 257.39051,183.94208 L 216.31122,183.94208 L 257.39051,142.86279 L 257.39051,183.94208 z " />
    </g>
  </g>
  <g
     id="border.outsideCorner.nw"
     transform="translate(69.898618,-5.6036866)"
     inkscape:label="#border.outsideCorner.nw">
    <rect
       inkscape:tile-cy="160.13824"
       inkscape:tile-cx="100"
       inkscape:tile-h="40"
       inkscape:tile-w="40"
       y="140.13824"
       x="-60"
       height="40"
       width="40"
       id="rect2309"
       style="opacity:1;fill:none;stroke:none" />
    <rect
       y="176.13824"
       x="-24"
       height="4"
       width="4"
       id="rect2459"
       style="opacity:1;fill:#ffffff;fill-opacity:1;stroke:none" />
  </g>
  <g
     id="border.edge.north"
     transform="translate(76.976959,-5.6036866)">
    <rect
       style="fill:none;stroke:none"
       id="use2315"
       width="40"
       height="40"
       x="-20"
       y="140.13824" />
    <rect
       y="176.13824"
       x="-20"
       height="4"
       width="40"
       id="rect2461"
       style="opacity:1;fill:#ffffff;fill-opacity:1;stroke:none" />
  </g>
  <g
     id="border.edge.west"
     transform="translate(69.898618,1.7695852)"
     inkscape:label="#border.edge.west">
    <rect
       style="fill:none;stroke:none"
       id="use2311"
       width="40"
       height="40"
       x="-60"
       y="180.13824" />
    <rect
       y="180.13824"
       x="-24"
       height="40"
       width="4"
       id="rect2463"
       style="opacity:1;fill:#ffffff;fill-opacity:1;stroke:none" />
  </g>
  <g
     id="border.outsideCorner.se"
     transform="translate(80.51613,6.488479)">
    <rect
       style="fill:none;stroke:none"
       id="use2325"
       width="40"
       height="40"
       x="20"
       y="220.13824" />
    <rect
       y="220.13824"
       x="20"
       height="4"
       width="4"
       id="rect2465"
       style="opacity:1;fill:#555556;fill-opacity:1;stroke:none" />
  </g>
  <g
     id="border.edge.east"
     transform="translate(80.51613,1.7695852)"
     inkscape:label="#border.edge.east">
    <rect
       style="fill:none;stroke:none"
       id="use2323"
       width="40"
       height="40"
       x="20"
       y="180.13824" />
    <rect
       y="180.13824"
       x="20"
       height="40"
       width="4"
       id="rect2467"
       style="opacity:1;fill:#555556;fill-opacity:1;stroke:none" />
  </g>
  <g
     id="border.edge.south"
     transform="translate(76.976959,6.488479)">
    <rect
       style="fill:none;stroke:none"
       id="use2319"
       width="40"
       height="40"
       x="-20"
       y="220.13824" />
    <rect
       y="220.13824"
       x="-20"
       height="4"
       width="40"
       id="rect2469"
       style="opacity:1;fill:#555556;fill-opacity:1;stroke:none" />
  </g>
  <path
     style="fill:#e6e6e6;stroke:none"
     d="M 163.3917,162.19355 L 243.3917,162.19355 L 243.3917,222.19355 L 163.3917,222.19355 L 163.3917,162.19355 z "
     id="mainWidget" />
</svg>
