/* XPM */
static char * kmines_xpm[] = {
"32 32 71 1",
" 	c None",
".	c #000000",
"+	c #AEAEE4",
"@	c #FFA858",
"#	c #C0C0FF",
"$	c #FF0000",
"%	c #808080",
"&	c #C0C0C0",
"*	c #0000FF",
"=	c #FFFFFF",
"-	c #A3A3A3",
";	c #00C0C0",
">	c #CCCCCC",
",	c #666666",
"'	c #C9C9C9",
")	c #696969",
"!	c #686868",
"~	c #676767",
"{	c #CACACA",
"]	c #C8C8C8",
"^	c #C6C6C6",
"/	c #C4C4C4",
"(	c #6C6C6C",
"_	c #6B6B6B",
":	c #6A6A6A",
"<	c #CBCBCB",
"[	c #C7C7C7",
"}	c #C5C5C5",
"|	c #C3C3C3",
"1	c #C1C1C1",
"2	c #BFBFBF",
"3	c #585858",
"4	c #6E6E6E",
"5	c #6D6D6D",
"6	c #BDBDBD",
"7	c #717171",
"8	c #6F6F6F",
"9	c #BEBEBE",
"0	c #BCBCBC",
"a	c #B6B6B6",
"b	c #B4B4B4",
"c	c #727272",
"d	c #707070",
"e	c #BABABA",
"f	c #B2B2B2",
"g	c #B0B0B0",
"h	c #AEAEAE",
"i	c #767676",
"j	c #747474",
"k	c #737373",
"l	c #B3B3B3",
"m	c #B1B1B1",
"n	c #AFAFAF",
"o	c #ADADAD",
"p	c #ABABAB",
"q	c #A9A9A9",
"r	c #797979",
"s	c #787878",
"t	c #757575",
"u	c #A7A7A7",
"v	c #7C7C7C",
"w	c #7B7B7B",
"x	c #7A7A7A",
"y	c #777777",
"z	c #AAAAAA",
"A	c #A8A8A8",
"B	c #A6A6A6",
"C	c #7D7D7D",
"D	c #A5A5A5",
"E	c #7E7E7E",
"F	c #7F7F7F",
"                      ...       ",
"                    ...+.       ",
"                  ..@@.#.       ",
"                ..@@$$.#.       ",
"               .@@$$$$.#.       ",
"                ..$$$$.#.       ",
"                  ..$$.#.       ",
"                    ...#.       ",
"                      .#.       ",
"                      .#.       ",
"                      .#.       ",
"              ...     .#.       ",
"            ..%&*..   .#.       ",
"          ..%&&*&*%.. .#.       ",
"        ..%&&*&&**&&%..#...     ",
"      ..%=%%&&**&&&..%.#.&%..   ",
"    ..%&&&==%%&&&..%&&.#.&--%.. ",
"  ..%&&&&;*&==%%.%&&&&.#.--&&&%.",
"..%&&&&;*&&*&&==.==&&&...&&&&==.",
".>==&;*&&**&&&%%.&&==&&&&&&==,,.",
".>>'==&**&&&%%==%%&&&==&&==)!~,.",
".>{]^/==&&%%==&&&&*%&&&==(_:)!,.",
".<'[}|12%%==&&&&*&&*%%&345(_:!~.",
"..%}|126%===&&*&&**&&&73845(:)!.",
"  ..%&90%=ab==&**&&&==c3d84(_:..",
"    ..%e%=bfgh==&&==ijk37d45..  ",
"      ..%=lmnopq==rsitj3cd..    ",
"        ..%nopquvwxsyit3..      ",
"          ..%zABCvxrsy..        ",
"            ..%DEvwx..          ",
"              ..FC..            ",
"                ..              "};
