/* XPM */
static char * large_kmines_xpm[] = {
"48 48 95 2",
"  	c None",
". 	c #020204",
"+ 	c #000000",
"@ 	c #FFA757",
"# 	c #FE8647",
"$ 	c #0A0604",
"% 	c #AEAEE4",
"& 	c #FE6536",
"* 	c #FE4425",
"= 	c #2A1A0C",
"- 	c #FE2314",
"; 	c #FE0103",
"> 	c #2E0204",
", 	c #1A0204",
"' 	c #0E0204",
") 	c #1F1F1F",
"! 	c #808080",
"~ 	c #C0C0C0",
"{ 	c #00C0C0",
"] 	c #0000FF",
"^ 	c #060604",
"/ 	c #161614",
"( 	c #222224",
"_ 	c #A3A3A3",
": 	c #FFFFFF",
"< 	c #CCCCCC",
"[ 	c #C2C2C4",
"} 	c #2A2A2C",
"| 	c #666666",
"1 	c #CACACA",
"2 	c #CBCBCB",
"3 	c #C9C9C9",
"4 	c #C8C8C8",
"5 	c #C7C7C7",
"6 	c #686868",
"7 	c #C6C6C6",
"8 	c #C4C4C4",
"9 	c #C3C3C3",
"0 	c #6C6C6C",
"a 	c #6B6B6B",
"b 	c #696969",
"c 	c #676767",
"d 	c #C5C5C5",
"e 	c #C2C2C2",
"f 	c #C1C1C1",
"g 	c #585858",
"h 	c #6F6F6F",
"i 	c #6D6D6D",
"j 	c #BFBFBF",
"k 	c #757575",
"l 	c #737373",
"m 	c #6E6E6E",
"n 	c #6A6A6A",
"o 	c #BEBEBE",
"p 	c #BABABA",
"q 	c #B9B9B9",
"r 	c #747474",
"s 	c #707070",
"t 	c #1E1E1C",
"u 	c #BDBDBD",
"v 	c #B8B8B8",
"w 	c #B6B6B6",
"x 	c #B5B5B5",
"y 	c #C6C6C4",
"z 	c #767676",
"A 	c #BCBCBC",
"B 	c #B7B7B7",
"C 	c #B4B4B4",
"D 	c #B3B3B3",
"E 	c #B1B1B1",
"F 	c #7A7A7A",
"G 	c #787878",
"H 	c #777777",
"I 	c #717171",
"J 	c #BBBBBB",
"K 	c #B2B2B2",
"L 	c #AFAFAF",
"M 	c #AEAEAE",
"N 	c #7E7E7E",
"O 	c #7D7D7D",
"P 	c #7B7B7B",
"Q 	c #797979",
"R 	c #727272",
"S 	c #B0B0B0",
"T 	c #ADADAD",
"U 	c #ACACAC",
"V 	c #AAAAAA",
"W 	c #7F7F7F",
"X 	c #ABABAB",
"Y 	c #A9A9A9",
"Z 	c #A8A8A8",
"` 	c #7C7C7C",
" .	c #A7A7A7",
"..	c #A6A6A6",
"+.	c #A5A5A5",
"                                                                                                ",
"                                                                                                ",
"                                                                                                ",
"                                                            . . . .                             ",
"                                                        + + @ # $ % +                           ",
"                                                    + $ @ # & * = % +                           ",
"                                                . . @ # & * - ; > % +                           ",
"                                            + $ @ # & * - ; ; ; > % +                           ",
"                                          + @ # & * - ; ; ; ; ; > % +                           ",
"                                            + + - ; ; ; ; ; ; ; > % +                           ",
"                                                + + ; ; ; ; ; ; , % +                           ",
"                                                    + + ; ; ; ; ' % +                           ",
"                                                        + + ; ; . % +                           ",
"                                                            + + . % +                           ",
"                                                                . % +                           ",
"                                                                . % +                           ",
"                                                                . % +                           ",
"                                          . + + .               . % +                           ",
"                                      ) ) ! ~ ~ ! ) )           . % +                           ",
"                                  ) ) ! ~ ~ ~ ~ ~ ~ ! ) )       . % +                           ",
"                              ) ) ! ~ ~ ~ ~ ~ ~ { ] ~ ~ ! ) + + . % + + +                       ",
"                          ) ) ! ~ ~ ~ ~ ~ ~ { ] ~ ~ ] ~ + + ! ~ . % + ~ ! + +                   ",
"                      ) ) ! ~ ~ ~ ~ ~ ~ { ] ~ ~ ] ] + + ! ~ ~ ~ ^ % + ~ ~ ~ ! + +               ",
"                  ) ) ! ~ ~ ! ! ~ ~ ~ ~ ~ ~ ] ] + + ! ~ ~ ~ ~ ~ / % + ~ ~ ~ ~ ~ ! + +           ",
"              ) ) ! ~ ~ ~ ~ ~ ~ ! ! ~ ~ ~ ~ + + ! ~ ~ ~ ~ ~ ~ ~ ( % + ~ ~ ~ _ ! ! ~ ! + +       ",
"          ) ) ! ~ ~ ~ ~ ~ { ] ~ ~ ~ ! ! ~ ~ + : : ~ ~ ~ ~ ~ ~ ~ ( % + ~ _ ! ! _ ~ ~ ~ ~ ! .     ",
"      ) ) ! ~ ~ ~ ~ ~ { ] ~ ~ ] ~ ~ ~ ~ ! ! + ~ ~ : : ~ ~ ~ ~ ~ ( % + ! ! _ ~ ~ ~ ~ ~ : : .     ",
"      . < : : [ ~ { ] ~ ~ ] ] ~ ~ ~ ~ ~ ~ ~ + ! ~ ~ ~ : : [ [ ~ } ^ + ~ ~ ~ ~ ~ [ : : | | .     ",
"      . < < 1 : : ~ ~ ] ] ~ ~ ~ ~ ~ ~ ! ! : : : ! ! ~ ~ ~ : : ~ ~ ~ ~ ~ ~ ~ ~ : : | | | | .     ",
"      . < 2 3 4 5 : : ~ ~ ~ ~ ~ ~ ! ! : : ~ ~ ~ ~ ~ ! ! ~ ~ ~ : : ~ ~ ~ ~ : : 6 | | | | | .     ",
"      . 2 1 4 5 7 8 9 : : ! ! ! ! : : ~ ~ ~ ~ ~ ~ ~ ~ ~ ! ! ~ ~ ~ : : : : 0 a b c | | | | .     ",
"      . 1 3 5 7 d 8 e f ~ ! : : : ~ ~ ~ ~ ~ ~ ~ ~ { ] ~ ~ ~ ! ! ! ~ ~ g h i a b c | | | | .     ",
"      . 3 4 5 d 8 9 f ~ j ! : : : ~ ~ ~ ~ ~ ~ { ] ~ ~ ] ~ ~ ~ ~ ~ k l g h m 0 n 6 | | | | .     ",
"      . 4 5 7 8 9 e ~ j o ! : p q : : ~ ~ { ] ~ ~ ] ] ~ ~ ~ ~ ~ ~ : r g s m 0 n b c | | | .     ",
"      . t ! d 9 e f j o u ! : q v w x : : ~ ~ ] ] ~ ~ ~ ~ ~ y : : z r g s h i a b c | | | .     ",
"          ) ) ! f ~ j u A ! : v B x C D E : : ~ ~ ~ ~ ~ ~ : : F G H k g I h i 0 n 6 | | | .     ",
"              ) ) ! o A J ! : B w C D K E L M : : ~ ~ : : N O P Q H k g R s m 0 n 6 c ) )       ",
"                  ) ) ! p ! : w x C K E S M T U V : : W W W O P Q G z g R s m i a ) )           ",
"                      ) ) ! : x C D E S L T U X Y Z W W W W N ` F G z g l I h ) )               ",
"                          ) ) ! D K S L M U X V Y  .W W W W N ` P Q H g l ) )                   ",
"                              ) ) ! L M T U V Y Z ..W W W W W O P Q H ) )                       ",
"                                  ) ) ! U X Y Z  .+.W W W W W N ` ) )                           ",
"                                      ) ) ! Z  ...+.W W W W W ) )                               ",
"                                          ) ) ! +.+.W W W ) )                                   ",
"                                              ) ) ! W ) )                                       ",
"                                                  ) )                                           ",
"                                                                                                ",
"                                                                                                "};
